<?xml version="1.0" encoding="UTF-8"?>
<svg id="Layer_1" data-name="Layer 1" xmlns="http://www.w3.org/2000/svg" viewBox="0 0 1084.25 377.61">
  <g>
    <path d="M471.79,270.29c-13.24,7.11-27.49,10.67-42.71,10.67-12.74,0-24.79-2.37-36.16-7.12-11.35-4.75-21.23-11.33-29.59-19.72-8.37-8.38-14.99-18.19-19.84-29.45-4.88-11.28-7.3-23.28-7.3-36.05s2.43-24.77,7.3-36.03c4.86-11.26,11.48-21.08,19.84-29.45,8.37-8.38,18.24-15.02,29.59-19.9,11.37-4.89,23.42-7.32,36.16-7.32,16.23,0,31.21,3.69,44.96,11.05,13.73,7.36,25.33,18.17,34.83,32.4l22.11-22.47c-11.24-16.71-25.55-29.86-42.91-39.51-17.36-9.62-37.02-14.45-58.99-14.45-17.49,0-33.84,3.26-49.08,9.75-15.24,6.49-28.53,15.42-39.9,26.77-11.35,11.37-20.35,24.74-26.97,40.1-6.62,15.35-9.93,31.77-9.93,49.26s3.31,33.84,9.93,49.08c6.62,15.22,15.62,28.46,26.97,39.7,11.37,11.23,24.66,20.1,39.9,26.59,15.24,6.49,31.59,9.75,49.08,9.75,20.72,0,39.7-4.62,56.94-13.87,17.23-9.23,31.97-22.22,44.2-38.95l-22.09-21.73c-10.99,13.47-23.12,23.78-36.34,30.91Z"/>
    <path d="M550.83,72.69v241.25h31.46V72.69h-31.46Z"/>
    <path d="M761.35,130.36v37.1c-7.48-11.5-17.09-20.67-28.84-27.54-11.75-6.85-24.72-10.29-38.95-10.29-12,0-23.17,2.43-33.53,7.3-10.36,4.86-19.36,11.48-26.97,19.84-7.63,8.38-13.67,18.17-18.17,29.41s-6.75,23.35-6.75,36.34,2.25,24.72,6.75,35.96c4.5,11.23,10.54,20.98,18.17,29.22,7.61,8.24,16.61,14.81,26.97,19.66,10.36,4.88,21.53,7.3,33.53,7.3,14.23,0,27.2-3.36,38.95-10.11,11.75-6.75,21.35-15.85,28.84-27.34v36.72h31.84v-183.57h-31.84ZM756.11,245.93c-3.26,7.38-7.63,13.8-13.11,19.3-5.49,5.49-11.93,9.8-19.29,12.92-7.38,3.13-15.17,4.68-23.42,4.68s-16.42-1.55-23.78-4.68c-7.36-3.11-13.73-7.43-19.11-12.92-5.36-5.5-9.61-11.93-12.74-19.3-3.11-7.36-4.68-15.17-4.68-23.41s1.57-16.12,4.68-23.6c3.13-7.5,7.38-13.98,12.74-19.48,5.38-5.49,11.75-9.86,19.11-13.11,7.36-3.24,15.29-4.86,23.78-4.86s16.05,1.62,23.42,4.86c7.36,3.26,13.8,7.63,19.29,13.11,5.49,5.5,9.86,11.98,13.11,19.48,3.24,7.48,4.88,15.36,4.88,23.6s-1.64,16.05-4.88,23.41Z"/>
    <path d="M942.67,130.36l-55.45,139.35-53.57-139.35h-34.09l70.05,184.31h33.71l73.06-184.31h-33.71Z"/>
    <path d="M1075.65,130.36c-1.92,0-3.8.04-5.63.13-8.98.4-16.69,1.78-23.14,4.17-2.75.99-5.29,2.18-7.57,3.56-8.35,5.02-15.2,11.62-20.6,19.83v-27.69h-31.48v183.57h31.48v-102.98c1.1-9.19,3.42-17.5,6.96-24.92,1.21-2.55,2.57-5,4.08-7.34,7.88-12.23,20.92-18.37,39.15-18.37h15.35v-29.97h-8.6Z"/>
  </g>
  <g>
    <path d="M233.04,205.55c-4.39-6.12-6.1-11.6-6.12-16.74.02-5.14,1.73-10.63,6.12-16.74.82-1.14,1.73-2.22,2.64-3.29,40.45-47.66-26.07-108.2-68.79-61.36-19.59,18.79-30.33,50.06-31.12,81.39.79,31.33,11.54,62.6,31.12,81.39,42.73,46.85,109.24-13.69,68.79-61.36-.91-1.07-1.82-2.15-2.64-3.29ZM187.27,251.34c-15.92-17.16-24.08-39.79-24.43-62.53.35-22.75,8.51-45.37,24.43-62.53,16.57-19.82,43.17,1.99,29,22.35-.7,1.01-1.51,1.93-2.34,2.84-9.51,10.42-14.34,23.73-14.49,37.35.15,13.62,4.98,26.94,14.49,37.35.83.91,1.64,1.83,2.34,2.84,14.17,20.36-12.43,42.16-29,22.35Z"/>
    <path d="M133.2,281.4c-21.49-26.36-32.54-59.38-33.15-92.6.61-33.22,11.66-66.24,33.15-92.6,2.58-3.17,5.39-6.15,8.24-9.08,47.47-48.72-22.68-120.63-72.78-69.61C23.63,64.17.7,126.37,0,188.8c.7,62.44,23.63,124.63,68.65,171.29,50.1,51.01,120.26-20.9,72.78-69.61-2.85-2.93-5.66-5.91-8.24-9.08ZM90.87,339.51c-44.25-42.6-59.93-98.33-59.62-150.71-.31-52.38,15.37-108.11,59.62-150.71,22.35-21.68,48.8,8.19,28.6,28.43-3.31,3.31-6.56,6.68-9.52,10.3-26.02,31.85-39.36,71.81-39.97,111.98.61,40.16,13.95,80.12,39.97,111.98,2.96,3.62,6.22,6.99,9.52,10.3,20.21,20.25-6.24,50.12-28.6,28.43Z"/>
  </g>
</svg>