<svg xmlns="http://www.w3.org/2000/svg" width="256" height="256" fill="none" viewBox="16 16 224 224" id="linear">
  <rect width="224" height="224" x="16" y="16" fill="#EEE" rx="70"></rect>
  <path fill="#222326" d="M65.591 114.777L141.223 190.409C142.327 191.513 141.794 193.388 140.259 193.675C137.673 194.158 135.061 194.488 132.436 194.662C132.156 194.68 131.876 194.637 131.613 194.538C131.351 194.438 131.113 194.284 130.915 194.085L61.9155 125.085C61.7164 124.887 61.5619 124.649 61.4623 124.387C61.3626 124.124 61.3202 123.844 61.3379 123.564C61.515 120.91 61.8473 118.3 62.3254 115.741C62.6118 114.206 64.4868 113.673 65.591 114.777ZM63.4598 145.4C62.9546 143.518 65.1785 142.33 66.5566 143.709L112.291 189.443C113.67 190.822 112.482 193.045 110.6 192.54C87.6676 186.392 69.6087 168.333 63.4598 145.4ZM70.0879 94.7518C70.7301 93.6398 72.2478 93.4689 73.1556 94.3773L161.623 182.843C162.532 183.752 162.361 185.269 161.248 185.912C159.371 186.996 157.441 187.987 155.467 188.883C154.722 189.222 153.847 189.051 153.269 188.472L67.528 102.732C66.9493 102.153 66.7785 101.279 67.1165 100.534C68.0126 98.5598 69.0044 96.6304 70.0884 94.7528M127.927 61.333C164.787 61.333 194.667 91.2132 194.667 128.073C194.667 147.64 186.246 165.24 172.831 177.448C172.056 178.153 170.868 178.106 170.127 177.366L78.6342 85.8726C77.8941 85.132 77.8478 83.9439 78.5519 83.1695C90.7598 69.7538 108.36 61.333 127.927 61.333Z"></path>
</svg>
